<?xml version="1.0" encoding="UTF-8" standalone="no"?>
<!-- Generator: Adobe Illustrator 15.0.0, SVG Export Plug-In . SVG Version: 6.00 Build 0)  -->

<svg
   xmlns:dc="http://purl.org/dc/elements/1.1/"
   xmlns:cc="http://creativecommons.org/ns#"
   xmlns:rdf="http://www.w3.org/1999/02/22-rdf-syntax-ns#"
   xmlns:svg="http://www.w3.org/2000/svg"
   xmlns="http://www.w3.org/2000/svg"
   xmlns:sodipodi="http://sodipodi.sourceforge.net/DTD/sodipodi-0.dtd"
   xmlns:inkscape="http://www.inkscape.org/namespaces/inkscape"
   version="1.1"
   id="レイヤー_1"
   x="0px"
   y="0px"
   width="64px"
   height="64px"
   viewBox="0 0 64 64"
   enable-background="new 0 0 64 64"
   xml:space="preserve"
   inkscape:version="0.91 r13725"
   sodipodi:docname="cosmos.svg"
   inkscape:export-filename="/home/zero/repo/emojidex/emojidex-web/src/img/categories/cosmos.png"
   inkscape:export-xdpi="90"
   inkscape:export-ydpi="90"><metadata
     id="metadata20"><rdf:RDF><cc:Work
         rdf:about=""><dc:format>image/svg+xml</dc:format><dc:type
           rdf:resource="http://purl.org/dc/dcmitype/StillImage" /></cc:Work></rdf:RDF></metadata><defs
     id="defs18" /><sodipodi:namedview
     pagecolor="#ffffff"
     bordercolor="#666666"
     borderopacity="1"
     objecttolerance="10"
     gridtolerance="10"
     guidetolerance="10"
     inkscape:pageopacity="0"
     inkscape:pageshadow="2"
     inkscape:window-width="1920"
     inkscape:window-height="1017"
     id="namedview16"
     showgrid="false"
     inkscape:zoom="3.6875"
     inkscape:cx="-29.152542"
     inkscape:cy="32"
     inkscape:window-x="0"
     inkscape:window-y="26"
     inkscape:window-maximized="1"
     inkscape:current-layer="レイヤー_1" /><path
     d="M32,5C17.088,5,5,17.089,5,32c0,14.912,12.088,27,27,27s27-12.088,27-27C59,17.089,46.912,5,32,5z M22.74,24.995  c0.067-0.107,0.129-0.219,0.199-0.324c0.383-0.587,0.818-1.134,1.296-1.644c2.174-2.319,5.256-3.776,8.685-3.776  c2.712,0,5.202,0.915,7.203,2.438c0.565,0.431,1.09,0.909,1.567,1.432c0.161,0.173,0.323,0.345,0.472,0.529  c0.422,0.517,0.796,1.075,1.126,1.658c0.72,1.267,1.205,2.679,1.417,4.182c-0.35,0.253-0.752,0.508-1.216,0.762  c-2.391,1.308-6.262,2.549-11.236,3.059c-1.409,0.143-2.811,0.219-4.166,0.219c-2.22,0-4.085-0.186-5.605-0.479  c-0.494-0.096-0.942-0.203-1.364-0.318c-0.067-0.514-0.114-1.035-0.114-1.564c0-1.579,0.313-3.081,0.871-4.459  C22.117,26.11,22.41,25.54,22.74,24.995z M32.92,43.083c-3.043,0-5.812-1.152-7.917-3.029c0.658,0.025,1.329,0.039,2.018,0.039  c0.056,0,0.114-0.002,0.171-0.002c1.867-0.008,3.792-0.105,5.725-0.305c2.691-0.277,5.284-0.729,7.696-1.322  c0.732-0.182,1.45-0.371,2.148-0.578C40.613,41.022,37.008,43.083,32.92,43.083z M45.342,35.638  c-0.527,0.205-1.076,0.402-1.646,0.592c-0.573,0.193-1.168,0.375-1.781,0.551c-2.732,0.775-5.826,1.375-9.131,1.711  c-2.532,0.262-4.974,0.348-7.253,0.281c-0.631-0.02-1.249-0.051-1.854-0.092c-0.59-0.041-1.165-0.094-1.727-0.154  c-6.327-0.699-10.73-2.723-11.018-5.525c-0.296-2.887,3.853-5.852,10.221-7.821c-0.092,0.18-0.18,0.362-0.263,0.546  c-3.1,1.375-4.975,3.093-4.802,4.78c0.139,1.36,1.583,2.474,3.872,3.229c0.445,0.148,0.926,0.279,1.432,0.398  c0.454,0.107,0.93,0.199,1.426,0.283c2.705,0.451,6.016,0.549,9.567,0.186c4.443-0.455,8.377-1.537,11.125-2.908  c0.477-0.239,0.914-0.486,1.315-0.74c0.476-0.298,0.896-0.609,1.253-0.926c0.998-0.883,1.527-1.817,1.434-2.741  c-0.129-1.254-1.372-2.292-3.354-3.042c-0.188-0.307-0.39-0.603-0.602-0.891c5.508,0.837,9.246,2.753,9.511,5.328  C53.323,31.172,50.271,33.72,45.342,35.638z"
     id="path14"
     style="fill:#8787de" /></svg>