<?xml version="1.0" encoding="UTF-8" standalone="no"?>
<!-- Generator: Adobe Illustrator 15.0.2, SVG Export Plug-In . SVG Version: 6.00 Build 0)  -->

<svg
   xmlns:dc="http://purl.org/dc/elements/1.1/"
   xmlns:cc="http://creativecommons.org/ns#"
   xmlns:rdf="http://www.w3.org/1999/02/22-rdf-syntax-ns#"
   xmlns:svg="http://www.w3.org/2000/svg"
   xmlns="http://www.w3.org/2000/svg"
   xmlns:sodipodi="http://sodipodi.sourceforge.net/DTD/sodipodi-0.dtd"
   xmlns:inkscape="http://www.inkscape.org/namespaces/inkscape"
   version="1.1"
   id="レイヤー_1"
   x="0px"
   y="0px"
   width="64px"
   height="64px"
   viewBox="0 0 64 64"
   enable-background="new 0 0 64 64"
   xml:space="preserve"
   inkscape:version="0.91 r13725"
   sodipodi:docname="faces.svg"
   inkscape:export-filename="/home/zero/repo/emojidex/emojidex-web/src/img/categories/faces.png"
   inkscape:export-xdpi="90"
   inkscape:export-ydpi="90"><metadata
     id="metadata37"><rdf:RDF><cc:Work
         rdf:about=""><dc:format>image/svg+xml</dc:format><dc:type
           rdf:resource="http://purl.org/dc/dcmitype/StillImage" /></cc:Work></rdf:RDF></metadata><defs
     id="defs35" /><sodipodi:namedview
     pagecolor="#ffffff"
     bordercolor="#666666"
     borderopacity="1"
     objecttolerance="10"
     gridtolerance="10"
     guidetolerance="10"
     inkscape:pageopacity="0"
     inkscape:pageshadow="2"
     inkscape:window-width="1920"
     inkscape:window-height="1017"
     id="namedview33"
     showgrid="false"
     inkscape:zoom="3.6875"
     inkscape:cx="-29.152542"
     inkscape:cy="32"
     inkscape:window-x="0"
     inkscape:window-y="26"
     inkscape:window-maximized="1"
     inkscape:current-layer="レイヤー_1" /><g
     id="g23"
     style="fill:#ffdd55"><rect
       x="25"
       y="23"
       fill="#FF8E50"
       width="4"
       height="7"
       id="rect25"
       style="fill:#ffdd55" /><path
       fill="#FF8E50"
       d="M32,43.105c5.424,0,9.82-4.105,9.82-8.105H22.18C22.18,39,26.576,43.105,32,43.105z"
       id="path27"
       style="fill:#ffdd55" /><path
       fill="#FF8E50"
       d="M32,5C17.088,5,5,17.089,5,32c0,14.912,12.088,27,27,27c14.912,0,27-12.088,27-27C59,17.089,46.912,5,32,5z    M32,47.705c-8.674,0-15.706-7.031-15.706-15.705S23.326,16.295,32,16.295c8.674,0,15.705,7.031,15.705,15.705   S40.674,47.705,32,47.705z"
       id="path29"
       style="fill:#ffdd55" /><rect
       x="35"
       y="23"
       fill="#FF8E50"
       width="4"
       height="7"
       id="rect31"
       style="fill:#ffdd55" /></g></svg>