<?xml version="1.0" encoding="UTF-8" standalone="no"?>
<!-- Generator: Adobe Illustrator 15.0.0, SVG Export Plug-In . SVG Version: 6.00 Build 0)  -->

<svg
   xmlns:dc="http://purl.org/dc/elements/1.1/"
   xmlns:cc="http://creativecommons.org/ns#"
   xmlns:rdf="http://www.w3.org/1999/02/22-rdf-syntax-ns#"
   xmlns:svg="http://www.w3.org/2000/svg"
   xmlns="http://www.w3.org/2000/svg"
   xmlns:sodipodi="http://sodipodi.sourceforge.net/DTD/sodipodi-0.dtd"
   xmlns:inkscape="http://www.inkscape.org/namespaces/inkscape"
   version="1.1"
   id="レイヤー_1"
   x="0px"
   y="0px"
   width="64px"
   height="64px"
   viewBox="0 0 64 64"
   enable-background="new 0 0 64 64"
   xml:space="preserve"
   inkscape:version="0.91 r13725"
   sodipodi:docname="places.svg"
   inkscape:export-filename="/home/zero/repo/emojidex/emojidex-web/src/img/categories/places.png"
   inkscape:export-xdpi="90"
   inkscape:export-ydpi="90"><metadata
     id="metadata158"><rdf:RDF><cc:Work
         rdf:about=""><dc:format>image/svg+xml</dc:format><dc:type
           rdf:resource="http://purl.org/dc/dcmitype/StillImage" /></cc:Work></rdf:RDF></metadata><defs
     id="defs156" /><sodipodi:namedview
     pagecolor="#ffffff"
     bordercolor="#666666"
     borderopacity="1"
     objecttolerance="10"
     gridtolerance="10"
     guidetolerance="10"
     inkscape:pageopacity="0"
     inkscape:pageshadow="2"
     inkscape:window-width="1920"
     inkscape:window-height="1017"
     id="namedview154"
     showgrid="false"
     inkscape:zoom="3.6875"
     inkscape:cx="-29.152542"
     inkscape:cy="32"
     inkscape:window-x="0"
     inkscape:window-y="26"
     inkscape:window-maximized="1"
     inkscape:current-layer="レイヤー_1" /><g
     id="g124"><path
       fill="#FFFFFF"
       d="M108.249,0.908c-1.933,0.199-3.858,0.298-5.726,0.305c-0.057,0-0.115,0.003-0.17,0.003   c-0.689,0-1.359-0.015-2.018-0.04c2.105,1.878,4.873,3.029,7.917,3.029c4.088,0,7.693-2.061,9.841-5.197   c-0.698,0.207-1.416,0.397-2.148,0.578C113.533,0.179,110.94,0.631,108.249,0.908z"
       id="path126" /><path
       fill="#FFFFFF"
       d="M96.451-6.147c0.422,0.116,0.869,0.223,1.363,0.318c1.521,0.294,3.387,0.479,5.605,0.479   c1.355,0,2.758-0.075,4.166-0.219c4.975-0.51,8.846-1.75,11.236-3.058c0.464-0.253,0.866-0.509,1.216-0.762   c-0.212-1.503-0.697-2.916-1.417-4.182c-0.33-0.583-0.704-1.141-1.126-1.658c-0.148-0.184-0.311-0.355-0.472-0.529   c-0.478-0.522-1.002-1-1.567-1.432c-2.001-1.522-4.491-2.438-7.203-2.438c-3.429,0-6.511,1.457-8.685,3.776   c-0.479,0.509-0.914,1.056-1.297,1.644c-0.07,0.105-0.131,0.217-0.199,0.324c-0.33,0.545-0.623,1.115-0.863,1.712   c-0.559,1.378-0.871,2.881-0.871,4.459C96.338-7.181,96.385-6.66,96.451-6.147z"
       id="path128" /><path
       fill="#FFFFFF"
       d="M128.4-10.196c-0.265-2.574-4.003-4.49-9.511-5.328c0.212,0.288,0.413,0.584,0.602,0.891   c1.982,0.75,3.226,1.787,3.354,3.042c0.094,0.924-0.436,1.858-1.434,2.741c-0.357,0.317-0.777,0.627-1.253,0.926   c-0.401,0.254-0.839,0.501-1.315,0.74c-2.748,1.371-6.683,2.453-11.125,2.909c-3.553,0.363-6.863,0.266-9.568-0.187   c-0.496-0.084-0.973-0.176-1.426-0.283c-0.506-0.119-0.987-0.249-1.432-0.397c-2.289-0.757-3.732-1.869-3.872-3.23   c-0.173-1.687,1.702-3.405,4.802-4.78c0.084-0.184,0.172-0.366,0.264-0.546c-6.369,1.969-10.518,4.934-10.221,7.821   c0.287,2.802,4.69,4.826,11.018,5.524c0.561,0.062,1.137,0.114,1.727,0.155c0.604,0.04,1.223,0.072,1.854,0.091   c2.279,0.066,4.721-0.019,7.253-0.28c3.305-0.337,6.398-0.936,9.131-1.711c0.613-0.176,1.208-0.358,1.781-0.551   c0.57-0.189,1.119-0.388,1.646-0.593C125.604-5.159,128.656-7.706,128.4-10.196z"
       id="path130" /></g><g
     id="icomoon-ignore"><line
       fill="none"
       stroke="#449FDB"
       x1="14"
       y1="18.667"
       x2="14"
       y2="18.667"
       id="line133" /></g><g
     id="icomoon-ignore_1_"><line
       fill="#FFFFFF"
       stroke="#449FDB"
       x1="23"
       y1="7"
       x2="23"
       y2="7"
       id="line136" /></g><g
     id="g138"
     style="fill:#71c837"><rect
       x="18.766"
       y="28.219"
       width="3.781"
       height="3.781"
       id="rect140"
       style="fill:#71c837" /><rect
       x="26.328"
       y="35.781"
       width="3.781"
       height="3.781"
       id="rect142"
       style="fill:#71c837" /><rect
       x="18.766"
       y="20.656"
       width="3.781"
       height="3.781"
       id="rect144"
       style="fill:#71c837" /><rect
       x="26.328"
       y="20.656"
       width="3.781"
       height="3.781"
       id="rect146"
       style="fill:#71c837" /><rect
       x="26.328"
       y="28.219"
       width="3.781"
       height="3.781"
       id="rect148"
       style="fill:#71c837" /><path
       d="M32,5C17.088,5,5,17.089,5,32c0,14.912,12.088,27,27,27s27-12.088,27-27C59,17.089,46.912,5,32,5z M32,47.125H16.875   v-30.25H32V47.125z M47.125,47.125h-3.781v-7.563h-5.672v7.563h-3.781V30.109h13.234V47.125z M47.125,28.219H33.891v-1.891h13.234   V28.219z"
       id="path150"
       style="fill:#71c837" /><rect
       x="18.766"
       y="35.781"
       width="3.781"
       height="3.781"
       id="rect152"
       style="fill:#71c837" /></g></svg>