<?xml version="1.0" encoding="UTF-8" standalone="no"?>
<!-- Generator: Adobe Illustrator 15.0.0, SVG Export Plug-In . SVG Version: 6.00 Build 0)  -->

<svg
   xmlns:dc="http://purl.org/dc/elements/1.1/"
   xmlns:cc="http://creativecommons.org/ns#"
   xmlns:rdf="http://www.w3.org/1999/02/22-rdf-syntax-ns#"
   xmlns:svg="http://www.w3.org/2000/svg"
   xmlns="http://www.w3.org/2000/svg"
   xmlns:sodipodi="http://sodipodi.sourceforge.net/DTD/sodipodi-0.dtd"
   xmlns:inkscape="http://www.inkscape.org/namespaces/inkscape"
   version="1.1"
   id="レイヤー_1"
   x="0px"
   y="0px"
   width="64px"
   height="64px"
   viewBox="0 0 64 64"
   enable-background="new 0 0 64 64"
   xml:space="preserve"
   inkscape:version="0.91 r13725"
   sodipodi:docname="tools.svg"
   inkscape:export-filename="/home/zero/repo/emojidex/emojidex-web/src/img/categories/tools.png"
   inkscape:export-xdpi="90"
   inkscape:export-ydpi="90"><metadata
     id="metadata176"><rdf:RDF><cc:Work
         rdf:about=""><dc:format>image/svg+xml</dc:format><dc:type
           rdf:resource="http://purl.org/dc/dcmitype/StillImage" /></cc:Work></rdf:RDF></metadata><defs
     id="defs174" /><sodipodi:namedview
     pagecolor="#ffffff"
     bordercolor="#666666"
     borderopacity="1"
     objecttolerance="10"
     gridtolerance="10"
     guidetolerance="10"
     inkscape:pageopacity="0"
     inkscape:pageshadow="2"
     inkscape:window-width="1920"
     inkscape:window-height="1017"
     id="namedview172"
     showgrid="false"
     inkscape:zoom="3.6875"
     inkscape:cx="-29.152542"
     inkscape:cy="32"
     inkscape:window-x="0"
     inkscape:window-y="26"
     inkscape:window-maximized="1"
     inkscape:current-layer="レイヤー_1" /><path
     d="M32,5C17.088,5,5,17.089,5,32c0,14.912,12.088,27,27,27s27-12.088,27-27C59,17.089,46.912,5,32,5z M47.446,44.272  l-3.172,3.172c-0.778,0.779-2,0.731-2.717-0.104L29.222,32.949C27.963,33.62,26.526,34,25,34c-4.971,0-9-4.028-9-9  c0-0.909,0.135-1.787,0.386-2.614l5.2,5.2c0.777,0.778,2.05,0.778,2.828,0l3.172-3.172c0.778-0.777,0.778-2.05,0-2.828l-5.2-5.2  C23.213,16.135,24.091,16,25,16c4.971,0,9,4.029,9,9c0,1.526-0.381,2.963-1.051,4.222l14.392,12.335h0.001  C48.177,42.272,48.224,43.495,47.446,44.272z"
     id="path170"
     style="fill:#666666" /></svg>