<?xml version="1.0" encoding="UTF-8" standalone="no"?>
<!-- Generator: Adobe Illustrator 15.0.2, SVG Export Plug-In . SVG Version: 6.00 Build 0)  -->

<svg
   xmlns:dc="http://purl.org/dc/elements/1.1/"
   xmlns:cc="http://creativecommons.org/ns#"
   xmlns:rdf="http://www.w3.org/1999/02/22-rdf-syntax-ns#"
   xmlns:svg="http://www.w3.org/2000/svg"
   xmlns="http://www.w3.org/2000/svg"
   xmlns:sodipodi="http://sodipodi.sourceforge.net/DTD/sodipodi-0.dtd"
   xmlns:inkscape="http://www.inkscape.org/namespaces/inkscape"
   version="1.1"
   id="レイヤー_1"
   x="0px"
   y="0px"
   width="64px"
   height="64px"
   viewBox="0 0 64 64"
   enable-background="new 0 0 64 64"
   xml:space="preserve"
   inkscape:version="0.91 r13725"
   sodipodi:docname="xxx.svg"
   inkscape:export-filename="/home/zero/repo/emojidex/emojidex-web/src/img/categories/xxx.png"
   inkscape:export-xdpi="90"
   inkscape:export-ydpi="90"><metadata
     id="metadata17"><rdf:RDF><cc:Work
         rdf:about=""><dc:format>image/svg+xml</dc:format><dc:type
           rdf:resource="http://purl.org/dc/dcmitype/StillImage" /></cc:Work></rdf:RDF></metadata><defs
     id="defs15" /><sodipodi:namedview
     pagecolor="#ffffff"
     bordercolor="#666666"
     borderopacity="1"
     objecttolerance="10"
     gridtolerance="10"
     guidetolerance="10"
     inkscape:pageopacity="0"
     inkscape:pageshadow="2"
     inkscape:window-width="1920"
     inkscape:window-height="1017"
     id="namedview13"
     showgrid="false"
     inkscape:zoom="3.6875"
     inkscape:cx="-90.305084"
     inkscape:cy="32"
     inkscape:window-x="0"
     inkscape:window-y="26"
     inkscape:window-maximized="1"
     inkscape:current-layer="レイヤー_1" /><g
     id="g3"
     style="fill:#d7003a;fill-opacity:1"><path
       fill="#FFD655"
       d="M35.477,40.929c-1.615,0-2.514-1.929-2.514-2.929h-2c0,1-0.823,2.929-2.438,2.929   c-1.614,0-2.928-1.929-2.928-2.929h-2.094c0,2,2.043,4.947,5.022,4.947c1.491,0,2.781-0.863,3.476-2.071   c0.694,1.208,1.984,2.091,3.476,2.091c2.82,0,5.021-2.967,5.021-4.967h-2.094C38.404,39,37.09,40.929,35.477,40.929z"
       id="path5"
       style="fill:#d7003a;fill-opacity:1" /><rect
       x="25"
       y="28"
       fill="#FFD655"
       width="3"
       height="6"
       id="rect7"
       style="fill:#d7003a;fill-opacity:1" /><rect
       x="36"
       y="28"
       fill="#FFD655"
       width="3"
       height="6"
       id="rect9"
       style="fill:#d7003a;fill-opacity:1" /><path
       fill="#FFD655"
       d="M32,5C17.088,5,5,17.088,5,32c0,14.912,12.088,27,27,27c14.912,0,27-12.088,27-27C59,17.088,46.912,5,32,5z    M32,47.51c-8.308,0-15.043-6.564-15.043-14.662c0-2.821,0.832-5.448,2.25-7.684c-1.019-2.416-2.684-6.921-1.499-8.106   c1.306-1.306,5.151-0.296,8.138,2.421c1.88-0.823,3.959-1.292,6.154-1.292s4.273,0.469,6.154,1.292   c2.986-2.717,6.832-3.727,8.139-2.421c1.186,1.185-0.48,5.689-1.498,8.105c1.416,2.236,2.248,4.863,2.248,7.684   C47.043,40.945,40.309,47.51,32,47.51z"
       id="path11"
       style="fill:#d7003a;fill-opacity:1" /></g></svg>