<?xml version="1.0" encoding="UTF-8" standalone="no"?>
<!-- Generator: Adobe Illustrator 15.0.2, SVG Export Plug-In . SVG Version: 6.00 Build 0)  -->

<svg
   xmlns:dc="http://purl.org/dc/elements/1.1/"
   xmlns:cc="http://creativecommons.org/ns#"
   xmlns:rdf="http://www.w3.org/1999/02/22-rdf-syntax-ns#"
   xmlns:svg="http://www.w3.org/2000/svg"
   xmlns="http://www.w3.org/2000/svg"
   xmlns:sodipodi="http://sodipodi.sourceforge.net/DTD/sodipodi-0.dtd"
   xmlns:inkscape="http://www.inkscape.org/namespaces/inkscape"
   version="1.1"
   id="レイヤー_1"
   x="0px"
   y="0px"
   width="64px"
   height="64px"
   viewBox="0 0 64 64"
   enable-background="new 0 0 64 64"
   xml:space="preserve"
   inkscape:version="0.91 r13725"
   sodipodi:docname="food.svg"
   inkscape:export-filename="/home/zero/repo/emojidex/emojidex-web/src/img/categories/food.png"
   inkscape:export-xdpi="90"
   inkscape:export-ydpi="90"><metadata
     id="metadata64"><rdf:RDF><cc:Work
         rdf:about=""><dc:format>image/svg+xml</dc:format><dc:type
           rdf:resource="http://purl.org/dc/dcmitype/StillImage" /></cc:Work></rdf:RDF></metadata><defs
     id="defs62" /><sodipodi:namedview
     pagecolor="#ffffff"
     bordercolor="#666666"
     borderopacity="1"
     objecttolerance="10"
     gridtolerance="10"
     guidetolerance="10"
     inkscape:pageopacity="0"
     inkscape:pageshadow="2"
     inkscape:window-width="1920"
     inkscape:window-height="1017"
     id="namedview60"
     showgrid="false"
     inkscape:zoom="3.6875"
     inkscape:cx="-29.152542"
     inkscape:cy="32"
     inkscape:window-x="0"
     inkscape:window-y="26"
     inkscape:window-maximized="1"
     inkscape:current-layer="レイヤー_1" /><g
     id="g40"
     style="fill:#c8ab37"><path
       fill="#FC7272"
       d="M28.432,19.231c-0.548-1.091-2.385,1.462-2.385,1.462S29.402,21.161,28.432,19.231z"
       id="path42"
       style="fill:#c8ab37" /><path
       fill="#FC7272"
       d="M30.444,20.942c-1.19-0.274,0.686,2.959,0.686,2.959S33.338,21.61,30.444,20.942z"
       id="path44"
       style="fill:#c8ab37" /><path
       fill="#FC7272"
       d="M28.13,23.526c0,0-2.663-1.499-3.083,0.375C24.588,25.943,28.13,23.526,28.13,23.526z"
       id="path46"
       style="fill:#c8ab37" /><path
       fill="#FC7272"
       d="M37.172,21.526c0,0-1.375-3-2.861-1.141C33.549,21.339,37.172,21.526,37.172,21.526z"
       id="path48"
       style="fill:#c8ab37" /><path
       fill="#FC7272"
       d="M39.588,20.193c2-1.333-2.574-1.497-2.574-1.497S38.574,20.87,39.588,20.193z"
       id="path50"
       style="fill:#c8ab37" /><path
       fill="#FC7272"
       d="M32.403,19.651c0,0-0.111-3.11-2.055-1.666C29.37,18.713,32.403,19.651,32.403,19.651z"
       id="path52"
       style="fill:#c8ab37" /><path
       fill="#FC7272"
       d="M25.296,21.86c0,0-1.583-2.042-2.767-0.277C21.85,22.597,25.296,21.86,25.296,21.86z"
       id="path54"
       style="fill:#c8ab37" /><path
       fill="#FC7272"
       d="M42.213,22.485c-0.375-1.042-3.246,0.218-3.246,0.218S43.025,24.739,42.213,22.485z"
       id="path56"
       style="fill:#c8ab37" /><path
       fill="#FC7272"
       d="M32,5C17.088,5,5,17.088,5,32c0,14.911,12.088,27,27,27c14.912,0,27-12.089,27-27C59,17.088,46.912,5,32,5z    M19.422,23.363c0,0,3.85-6.715,12.871-6.715c9.02,0,12.87,6.769,12.87,6.769C47.066,26.686,45.531,29,41.748,29H22.837   C19.054,29,17.518,26.632,19.422,23.363z M44.977,44.45c0,0-2.598,3.131-12.379,3.131c-9.781,0-12.059-2.931-12.059-2.931   c-1.13-1.175-1.703-2.652-1.326-3.753c2.084,0.865,5.08,1.614,5.957,0.934c1.118-0.867,1.864,1.049,8.202,0.264   c6.34-0.784,0.932-3.389,7.645-1.913c2.178,0.479,3.818,0.58,5.018,0.46C46.637,41.699,46.17,43.21,44.977,44.45z M40.039,38.231   c-6.348-1.411-1.234,1.079-7.23,1.829c-5.994,0.749-6.699-1.083-7.757-0.253c-1.058,0.829-5.391-0.565-7.012-1.576   c-1.622-1.013-2.665-0.284-3.566-1.126C12.865,35.6,19.968,35,19.968,35s17.754,0,21.791,0c3.3,0,4.45,0.281,5.331,1.441   C47.973,37.604,46.385,39.643,40.039,38.231z M45.26,33H19.228c-1.134,0-2.054-0.783-2.054-1.5c0-0.718,0.92-1.5,2.054-1.5H45.26   c1.135,0,2.055,0.783,2.055,1.5C47.314,32.217,46.395,33,45.26,33z"
       id="path58"
       style="fill:#c8ab37" /></g></svg>