<?xml version="1.0" encoding="utf-8"?>
<!-- Generator: Adobe Illustrator 15.0.2, SVG Export Plug-In . SVG Version: 6.00 Build 0)  -->
<!DOCTYPE svg PUBLIC "-//W3C//DTD SVG 1.1//EN" "http://www.w3.org/Graphics/SVG/1.1/DTD/svg11.dtd">
<svg version="1.1" id="レイヤー_1" xmlns="http://www.w3.org/2000/svg" xmlns:xlink="http://www.w3.org/1999/xlink" x="0px"
	 y="0px" width="64px" height="64px" viewBox="0 0 64 64" enable-background="new 0 0 64 64" xml:space="preserve">
<g>
	<path fill="#FFFFFF" stroke="#231815" stroke-width="1.0458" stroke-miterlimit="10" d="M15.667,45.169
		c-3.042,0.864-5.75,1.53-5.75,1.53s0.167-2.447-3.167-2.53c0,0,0.083-3.334-2.75-4.167s-4.333,1.417-4.333,1.417v26h25.917
		c0,0,1.916-3.437-3.667-6.552c0,0,4-6.031-5.333-6.031c0,0,2.055-0.75,0.986-2.667l1.764-4.917c0,0,3.194-5.166,5.014-6.333
		l-1.264-1.267C23.083,39.652,19.751,44.009,15.667,45.169z"/>
	<g>
		<g>
			<polygon fill="#FF3000" stroke="#231815" stroke-width="1.2173" stroke-miterlimit="10" points="41.198,39.652 41.611,52.912 
				35.66,60.867 32.832,58.038 34.363,52.499 28.206,42.393 			"/>
			<polygon fill="#FF3000" stroke="#231815" stroke-width="1.2173" stroke-miterlimit="10" points="24.347,22.801 11.088,22.389 
				3.133,28.34 5.961,31.168 11.501,29.637 21.607,35.794 			"/>
		</g>
		<path fill="#FFFFFF" stroke="#231815" stroke-width="1.2173" stroke-miterlimit="10" d="M53.022,29.556
			c11.334-12.912,4.913-23.491,4.913-23.491s-10.58-6.421-23.492,4.913C21.532,22.312,17.301,33.43,17.301,33.43l4.984,8.285
			l8.285,4.984C30.57,46.699,41.688,42.468,53.022,29.556z"/>
		<polygon fill="#FF3000" stroke="#231815" stroke-width="1.0458" stroke-miterlimit="10" points="34.481,29.519 29.826,30.52 
			17.569,42.776 19.396,44.604 21.224,46.431 33.48,34.174 		"/>
		<path fill="#FF3000" stroke="#231815" stroke-width="1.0297" stroke-miterlimit="10" d="M48.182,4.799l11.02,11.02
			c0,0,1.461-6.553-1.474-9.487C54.794,3.397,48.182,4.799,48.182,4.799z"/>
		
			<linearGradient id="SVGID_1_" gradientUnits="userSpaceOnUse" x1="31.166" y1="8.4697" x2="32.2492" y2="16.3046" gradientTransform="matrix(0.7071 0.7071 -0.7071 0.7071 32.2954 -13.2438)">
			<stop  offset="0" style="stop-color:#9FECFF"/>
			<stop  offset="1" style="stop-color:#FFFFFF"/>
		</linearGradient>
		<circle fill="url(#SVGID_1_)" stroke="#231815" stroke-width="1.2173" stroke-miterlimit="10" cx="45.62" cy="18.38" r="5.542"/>
	</g>
</g>
</svg>
