<?xml version="1.0" encoding="UTF-8" standalone="no"?>
<!-- Generator: Adobe Illustrator 15.0.0, SVG Export Plug-In . SVG Version: 6.00 Build 0)  -->

<svg
   xmlns:dc="http://purl.org/dc/elements/1.1/"
   xmlns:cc="http://creativecommons.org/ns#"
   xmlns:rdf="http://www.w3.org/1999/02/22-rdf-syntax-ns#"
   xmlns:svg="http://www.w3.org/2000/svg"
   xmlns="http://www.w3.org/2000/svg"
   xmlns:sodipodi="http://sodipodi.sourceforge.net/DTD/sodipodi-0.dtd"
   xmlns:inkscape="http://www.inkscape.org/namespaces/inkscape"
   version="1.1"
   id="レイヤー_1"
   x="0px"
   y="0px"
   width="64px"
   height="64px"
   viewBox="0 0 64 64"
   enable-background="new 0 0 64 64"
   xml:space="preserve"
   inkscape:version="0.91 r13725"
   sodipodi:docname="pepole.svg"
   inkscape:export-filename="/home/zero/repo/emojidex/emojidex-web/src/img/categories/pepole.png"
   inkscape:export-xdpi="90"
   inkscape:export-ydpi="90"><metadata
     id="metadata121"><rdf:RDF><cc:Work
         rdf:about=""><dc:format>image/svg+xml</dc:format><dc:type
           rdf:resource="http://purl.org/dc/dcmitype/StillImage" /></cc:Work></rdf:RDF></metadata><defs
     id="defs119" /><sodipodi:namedview
     pagecolor="#ffffff"
     bordercolor="#666666"
     borderopacity="1"
     objecttolerance="10"
     gridtolerance="10"
     guidetolerance="10"
     inkscape:pageopacity="0"
     inkscape:pageshadow="2"
     inkscape:window-width="1920"
     inkscape:window-height="1017"
     id="namedview117"
     showgrid="false"
     inkscape:zoom="3.6875"
     inkscape:cx="-29.152542"
     inkscape:cy="32"
     inkscape:window-x="0"
     inkscape:window-y="26"
     inkscape:window-maximized="1"
     inkscape:current-layer="レイヤー_1" /><path
     d="M32,5C17.088,5,5,17.089,5,32c0,14.912,12.088,27,27,27s27-12.088,27-27C59,17.089,46.912,5,32,5z M44.191,47.502V47.5  H19.808c-0.961,0-1.742-0.781-1.742-1.742c0-2.499,1.055-5.521,2.821-8.09c1.477-2.145,3.29-3.76,5.25-4.703  c-0.864-0.784-1.608-1.74-2.195-2.833c-0.944-1.75-1.442-3.775-1.442-5.853c0-2.888,0.949-5.617,2.677-7.684  c1.801-2.158,4.226-3.345,6.823-3.345c2.597,0,5.021,1.188,6.822,3.346c1.727,2.067,2.678,4.798,2.678,7.685  c0,2.078-0.499,4.102-1.442,5.852c-0.588,1.093-1.331,2.049-2.194,2.834c1.959,0.943,3.773,2.559,5.249,4.704  c1.765,2.565,2.821,5.591,2.821,8.089C45.934,46.722,45.153,47.502,44.191,47.502z"
     id="path115"
     style="fill:#00aad4" /></svg>