<?xml version="1.0" encoding="UTF-8" standalone="no"?>
<!-- Generator: Adobe Illustrator 15.0.2, SVG Export Plug-In . SVG Version: 6.00 Build 0)  -->

<svg
   xmlns:dc="http://purl.org/dc/elements/1.1/"
   xmlns:cc="http://creativecommons.org/ns#"
   xmlns:rdf="http://www.w3.org/1999/02/22-rdf-syntax-ns#"
   xmlns:svg="http://www.w3.org/2000/svg"
   xmlns="http://www.w3.org/2000/svg"
   xmlns:sodipodi="http://sodipodi.sourceforge.net/DTD/sodipodi-0.dtd"
   xmlns:inkscape="http://www.inkscape.org/namespaces/inkscape"
   version="1.1"
   id="レイヤー_1"
   x="0px"
   y="0px"
   width="64px"
   height="64px"
   viewBox="0 0 64 64"
   enable-background="new 0 0 64 64"
   xml:space="preserve"
   inkscape:version="0.91 r13725"
   sodipodi:docname="transportation.svg"
   inkscape:export-filename="/home/zero/repo/emojidex/emojidex-web/src/img/categories/transportation.png"
   inkscape:export-xdpi="90"
   inkscape:export-ydpi="90"><metadata
     id="metadata191"><rdf:RDF><cc:Work
         rdf:about=""><dc:format>image/svg+xml</dc:format><dc:type
           rdf:resource="http://purl.org/dc/dcmitype/StillImage" /></cc:Work></rdf:RDF></metadata><defs
     id="defs189" /><sodipodi:namedview
     pagecolor="#ffffff"
     bordercolor="#666666"
     borderopacity="1"
     objecttolerance="10"
     gridtolerance="10"
     guidetolerance="10"
     inkscape:pageopacity="0"
     inkscape:pageshadow="2"
     inkscape:window-width="1920"
     inkscape:window-height="1017"
     id="namedview187"
     showgrid="false"
     inkscape:zoom="3.6875"
     inkscape:cx="-29.152542"
     inkscape:cy="32"
     inkscape:window-x="0"
     inkscape:window-y="26"
     inkscape:window-maximized="1"
     inkscape:current-layer="レイヤー_1" /><g
     id="g179"
     style="fill:#ff5555"><polygon
       fill="#C79CF2"
       points="21.904,29 32,29 32,22 25.191,22  "
       id="polygon181"
       style="fill:#ff5555" /><polygon
       fill="#C79CF2"
       points="34,22 34,29 44.563,29 42.592,22  "
       id="polygon183"
       style="fill:#ff5555" /><path
       fill="#C79CF2"
       d="M32,5C17.088,5,5,17.088,5,32c0,14.911,12.088,27,27,27c14.912,0,27-12.089,27-27C59,17.088,46.912,5,32,5z    M23.69,43.518c-2.607,0-4.722-2.113-4.722-4.721c0-2.608,2.114-4.723,4.722-4.723s4.722,2.114,4.722,4.723   C28.412,41.404,26.298,43.518,23.69,43.518z M42.592,43.518c-2.607,0-4.721-2.113-4.721-4.721c0-2.608,2.113-4.723,4.721-4.723   s4.723,2.114,4.723,4.723C47.314,41.404,45.199,43.518,42.592,43.518z M48.553,39c0-4-2.68-5.988-5.986-5.988S36.578,35,36.578,39   h-7.043c0-4-2.681-5.988-5.987-5.988C20.24,33.012,17.56,35,17.56,39H12v-7.248l7.887-2.824L24.251,20h19.723l2.957,8.693   L52,30.344V39H48.553z"
       id="path185"
       style="fill:#ff5555" /></g></svg>