<?xml version="1.0" encoding="utf-8"?>
<!-- Generator: Adobe Illustrator 15.0.2, SVG Export Plug-In . SVG Version: 6.00 Build 0)  -->
<!DOCTYPE svg PUBLIC "-//W3C//DTD SVG 1.1//EN" "http://www.w3.org/Graphics/SVG/1.1/DTD/svg11.dtd">
<svg version="1.1" id="レイヤー_1" xmlns="http://www.w3.org/2000/svg" xmlns:xlink="http://www.w3.org/1999/xlink" x="0px"
	 y="0px" width="64px" height="64px" viewBox="0 0 64 64" enable-background="new 0 0 64 64" xml:space="preserve">
<g id="月顔_1_">
	<path fill="#FFAF27" stroke="#2B2001" stroke-width="3" stroke-miterlimit="10" d="M54.104,48.969
		c-15.693,0-28.416-12.723-28.416-28.416c0-6.311,2.061-12.14,5.542-16.855C17.209,5.442,6.354,17.393,6.354,31.886
		c0,15.694,12.723,28.417,28.416,28.417c9.383,0,17.7-4.551,22.875-11.563C56.484,48.885,55.305,48.969,54.104,48.969z"/>
	<path fill="#FFAF27" stroke="#2B2001" stroke-width="3" stroke-miterlimit="10" d="M22.056,26.386c0,0,4.344,3.153,6.968,2.66
		s-4.209,5.673-4.209,5.673"/>
	<path fill="#2B2001" d="M15.654,23.188c-0.276-1.253-1.029-2.16-1.925-2.16c-1.129,0-2.045,1.429-2.045,3.191
		s0.916,3.191,2.045,3.191c1.128,0,2.043-1.429,2.043-3.191h-2.044L15.654,23.188z"/>
	<path fill="#2B2001" d="M23.982,19.996c-0.276-1.253-1.029-2.16-1.925-2.16c-1.129,0-2.045,1.429-2.045,3.191
		s0.916,3.191,2.045,3.191c1.128,0,2.043-1.429,2.043-3.191h-2.044L23.982,19.996z"/>
	<path fill="none" stroke="#2B2001" stroke-width="2.2384" stroke-miterlimit="3" d="M12.951,35.543c0,0,4.414,7.666,12.417,5.666
		c4.017-1.832,2.503-4.666,2.503-4.666"/>
</g>
</svg>
